<svg xmlns="http://www.w3.org/2000/svg" width="1200" height="630" viewBox="0 0 1200 630">
  <defs>
    <linearGradient id="bg" x2="1" y2="1"><stop stop-color="#07172f"/><stop offset="1" stop-color="#02060f"/></linearGradient>
    <linearGradient id="ink"><stop stop-color="#eaf4ff"/><stop offset=".6" stop-color="#7dd3fc"/><stop offset="1" stop-color="#a78bfa"/></linearGradient>
    <pattern id="grid" width="48" height="48" patternUnits="userSpaceOnUse"><path d="M48 0H0V48" fill="none" stroke="#254466" stroke-opacity=".3"/></pattern>
  </defs>
  <rect width="1200" height="630" fill="url(#bg)"/>
  <rect width="1200" height="630" fill="url(#grid)"/>
  <g fill="none" stroke="#3b82f6" opacity=".28">
    <circle cx="1010" cy="305" r="280"/>
    <circle cx="1010" cy="305" r="235" stroke-dasharray="5 12"/>
    <circle cx="1010" cy="305" r="180"/>
  </g>
  <path d="M1040 125 920 330h80l-40 155 155-230h-90z" fill="#2563eb" opacity=".18"/>
  <g transform="translate(76 66) scale(2.1)">
    <path d="M16 2.5 28 9.2v13.6L16 29.5 4 22.8V9.2z" fill="none" stroke="#3b82f6" stroke-width="2"/>
    <path d="M17.6 7.5 10.5 18h4.2l-1.6 6.8L20.5 14h-4.2z" fill="#7dd3fc"/>
  </g>
  <text x="164" y="109" fill="#91a6c8" font-family="Consolas, monospace" font-size="20" letter-spacing="4">PERSONAL WORKSHOP</text>
  <text x="80" y="310" fill="url(#ink)" font-family="Consolas, monospace" font-size="122" font-weight="700" letter-spacing="7">FORGEOS</text>
  <text x="86" y="388" fill="#d7e3f7" font-family="Segoe UI, sans-serif" font-size="38">Learn. Build. Create.</text>
  <path d="M86 462H760" stroke="#315375"/>
  <text x="86" y="532" fill="#91a6c8" font-family="Consolas, monospace" font-size="22" letter-spacing="3">forgeos.work</text>
</svg>
